#!OML:ASF H:\Dans Jumps\Project 1\Capture day 1\Session 1\subject.ASF
:FULLY-SPECIFIED
:DEGREES
287
root 0.665372 16.1812 3.36451 -6.21237 -2.50274 -0.26629
lowerback 3.25814 0.27958 -0.0771015
upperback 1.68967 0.375816 1.47456
thorax -0.104814 0.181611 1.54168
lowerneck -7.9408 0.191397 -0.882981
upperneck 35.2508 -0.0750698 1.51932
head 13.1074 0.0420432 0.742787
rclavicle 2.85753e-015 -6.36111e-015
rhumerus -52.0808 -17.4107 -67.3865
rradius 15.4728
rwrist 50.3207
rhand -24.7424 -29.5864
rfingers 7.12502
rthumb 1.76031 -59.5589
lclavicle 2.85753e-015 -6.36111e-015
lhumerus -43.1515 -2.93935 85.8678
lradius 8.93876
lwrist -2.20143
lhand -25.0867 -8.13243
lfingers 7.12502
lthumb 1.42779 21.8425
rfemur -26.8164 -0.730268 18.0069
rtibia 52.8918
rfoot -18.0347 2.22824
rtoes 6.17034
lfemur -24.6457 10.8021 -17.2373
ltibia 50.0181
lfoot -18.8296 -2.15616
ltoes -10.3373
288
root 0.653695 15.9184 3.48621 -6.26818 -2.3288 -0.5456
lowerback 3.0511 0.23582 -0.0628005
upperback 1.50184 0.319783 1.71003
thorax -0.181162 0.153935 1.77748
lowerneck -8.18666 0.169628 -0.936046
upperneck 35.2193 -0.0547033 1.41037
head 13.1466 0.0318239 0.712876
rclavicle 5.2181e-016 -3.97569e-015
rhumerus -50.6298 -22.7196 -63.0922
rradius 14.1462
rwrist 57.3187
rhand -25.167 -30.0299
rfingers 7.12502
rthumb 1.35032 -60.0054
lclavicle 5.2181e-016 -3.97569e-015
lhumerus -39.7592 -0.697517 84.7536
lradius 7.23052
lwrist -4.37443
lhand -26.6477 -8.10103
lfingers 7.12502
lthumb -0.079856 21.8787
rfemur -28.4332 -0.503909 18.4055
rtibia 56.7412
rfoot -20.6324 0.377137
rtoes 4.20602
lfemur -26.7072 10.3229 -16.9257
ltibia 54.4082
lfoot -21.231 0.0436665
ltoes -14.6696
289
root 0.644813 15.6721 3.59738 -6.60016 -2.17614 -0.879803
lowerback 3.15601 0.213459 0.0896065
upperback 1.45898 0.296971 1.91403
thorax -0.28325 0.143167 1.90172
lowerneck -8.4061 0.122617 -0.932045
upperneck 35.1486 -0.0769588 1.2816
head 13.1637 0.00767 0.658871
rclavicle -9.83984e-015 -1.98785e-015
rhumerus -49.161 -27.2888 -60.3077
rradius 13.6336
rwrist 62.6717
rhand -25.4997 -30.3709
rfingers 7.12502
rthumb 1.02891 -60.3482
lclavicle -9.83984e-015 -1.98785e-015
lhumerus -36.6126 1.50808 83.7
lradius 6.56776
lwrist -6.29826
lhand -27.9781 -8.13072
lfingers 7.12502
lthumb -1.36476 21.8447
rfemur -29.7165 -0.495162 18.8234
rtibia 60.3137
rfoot -22.4055 -1.04682
rtoes 2.10458
lfemur -28.3229 9.92312 -16.5205
ltibia 58.3853
lfoot -22.7273 1.90682
ltoes -16.8595
290
root 0.64198 15.4569 3.70164 -7.33907 -2.01523 -1.18485
lowerback 3.66455 0.196941 0.31818
upperback 1.56842 0.28789 2.06515
thorax -0.4546 0.139197 1.92778
lowerneck -8.60952 0.0532579 -0.950433
upperneck 35.0831 -0.146262 1.20823
head 13.1803 -0.0332496 0.624235
rclavicle -2.28602e-015 -1.94809e-014
rhumerus -46.8108 -29.5672 -60.4812
rradius 13.9751
rwrist 64.3467
rhand -25.748 -30.6528
rfingers 7.12502
rthumb 0.789153 -60.631
lclavicle -2.28602e-015 -1.94809e-014
lhumerus -33.9435 3.67429 82.6857
lradius 7.13554
lwrist -8.04018
lhand -28.8546 -8.40325
lfingers 7.12502
lthumb -2.21132 21.565
rfemur -30.2357 -0.744823 19.1393
rtibia 63.3081
rfoot -23.7272 -1.93987
rtoes 0.289141
lfemur -29.0603 9.51321 -16.11
ltibia 61.6495
lfoot -23.6654 3.65211
ltoes -18.5118
291
root 0.64568 15.2859 3.8022 -8.42605 -1.80035 -1.37877
lowerback 4.49707 0.164664 0.519252
upperback 1.77559 0.262961 2.15513
thorax -0.705639 0.127057 1.90713
lowerneck -8.77699 -0.0260537 -0.993661
upperneck 35.0525 -0.24093 1.18061
head 13.2048 -0.0829353 0.60862
rclavicle -6.95746e-016 -1.98785e-015
rhumerus -43.4073 -29.0656 -63.4416
rradius 15.0652
rwrist 62.0899
rhand -26.0086 -30.8704
rfingers 7.12502
rthumb 0.537452 -60.8494
lclavicle -6.95746e-016 -1.98785e-015
lhumerus -31.7869 5.81138 81.6891
lradius 8.71276
lwrist -9.62134
lhand -29.0196 -8.86084
lfingers 7.12502
lthumb -2.37059 21.1057
rfemur -29.8679 -1.2806 19.2465
rtibia 65.5475
rfoot -25.0297 -2.57264
rtoes -1.72269
lfemur -28.8365 9.14614 -15.8256
ltibia 64.0802
lfoot -24.5545 5.34723
ltoes -19.9619
292
root 0.655284 15.1627 3.89818 -9.66709 -1.51567 -1.49129
lowerback 5.50957 0.103431 0.681355
upperback 1.98141 0.20473 2.21063
thorax -1.05662 0.0982509 1.87589
lowerneck -8.89551 -0.102808 -1.09853
upperneck 35.1047 -0.342483 1.22192
head 13.2554 -0.13512 0.630529
rclavicle 5.46658e-016 -1.31198e-014
rhumerus -39.7138 -26.442 -67.6261
rradius 16.7352
rwrist 57.3517
rhand -26.3638 -31.0218
rfingers 7.12502
rthumb 0.19433 -61.0014
lclavicle 5.46658e-016 -1.31198e-014
lhumerus -30.0593 7.93167 80.6924
lradius 10.8449
lwrist -11.0591
lhand -28.4616 -9.65903
lfingers 7.12502
lthumb -1.83171 20.3129
rfemur -28.8648 -2.09668 19.1687
rtibia 67.1334
rfoot -26.3449 -2.85229
rtoes -3.20637
lfemur -27.9904 8.73036 -15.6528
ltibia 65.8032
lfoot -25.3384 6.6934
ltoes -20.7752
293
root 0.666738 15.0724 3.99135 -10.6832 -1.17101 -1.46777
lowerback 6.3358 0.0295876 0.677989
upperback 2.075 0.121519 2.23778
thorax -1.41797 0.0569579 1.91233
lowerneck -8.9856 -0.172748 -1.20896
upperneck 35.269 -0.433362 1.26092
head 13.3494 -0.18381 0.654707
rclavicle -6.75868e-015 9.93923e-015
rhumerus -36.3777 -22.8752 -71.6019
rradius 18.6925
rwrist 52.0149
rhand -26.7878 -31.1475
rfingers 7.12502
rthumb -0.215172 -61.1271
lclavicle -6.75868e-015 9.93923e-015
lhumerus -28.1463 2.65896 83.7244
lradius 13.1776
lwrist -4.17246
lhand -28.7473 -10.0917
lfingers 7.12502
lthumb -2.10766 19.8777
rfemur -27.8698 -2.97581 18.8667
rtibia 68.3074
rfoot -27.5373 -2.86169
rtoes -3.9479
lfemur -27.1294 8.25813 -15.6927
ltibia 67.0557
lfoot -26.0395 7.75058
ltoes -21.295
